<svg width="1000" height="1000" viewBox="0 0 1000 1000" fill="none" xmlns="http://www.w3.org/2000/svg">
<g clip-path="url(#clip0_4035_654)">
<path d="M500 1000C776.142 1000 1000 776.142 1000 500C1000 223.858 776.142 0 500 0C223.858 0 0 223.858 0 500C0 776.142 223.858 1000 500 1000Z" fill="white"/>
<path d="M126.28 343.098C126.103 332.269 128.093 321.516 132.132 311.476C136.171 301.436 142.177 292.315 149.792 284.657C157.407 276.999 166.475 270.958 176.458 266.896C186.441 262.834 197.134 260.833 207.902 261.011C218.671 260.829 229.366 262.828 239.351 266.889C249.335 270.949 258.406 276.989 266.021 284.648C273.637 292.307 279.643 301.429 283.68 311.471C287.718 321.512 289.705 332.268 289.524 343.098C289.701 353.926 287.711 364.679 283.672 374.718C279.632 384.756 273.626 393.875 266.011 401.531C258.396 409.187 249.327 415.224 239.344 419.283C229.361 423.342 218.668 425.34 207.902 425.157C197.137 425.336 186.446 423.335 176.465 419.275C166.484 415.214 157.417 409.177 149.802 401.522C142.188 393.867 136.181 384.749 132.141 374.713C128.1 364.676 126.107 353.925 126.28 343.098V343.098Z" fill="#5162FF"/>
<path d="M357.654 712.805V587.896H371.914C388.227 679.964 432.945 724.937 508.178 724.937C567.783 724.937 606.797 694.219 606.797 639.982C606.797 581.471 561.395 560.763 491.837 533.658C427.982 508.676 361.276 484.412 361.276 401.722C361.276 323.937 419.455 268.266 517.39 268.266C576.995 268.266 611.788 284.671 656.478 296.804V418.128H642.218C627.303 337.504 582.585 296.804 511.629 296.804C459.125 296.804 426.471 323.22 426.471 371.032C426.471 413.137 451.311 433.846 529.368 463.818C603.888 493.074 676.27 519.489 676.27 610.095C676.27 697.89 610.277 753.504 508.806 753.504C428.581 753.476 391.735 726.343 357.654 712.805Z" fill="#002133"/>
</g>
<defs>
<clipPath id="clip0_4035_654">
<rect width="1000" height="1000" fill="white"/>
</clipPath>
</defs>
</svg>
